<mxfile host="app.diagrams.net" agent="Mozilla/5.0 (Windows NT 10.0; Win64; x64) AppleWebKit/537.36 (KHTML, like Gecko) Chrome/137.0.0.0 Safari/537.36" version="27.1.6">
  <diagram name="Page-1" id="rvHaamTDCmi-fZt31vM_">
    <mxGraphModel dx="1042" dy="535" grid="1" gridSize="10" guides="1" tooltips="1" connect="1" arrows="1" fold="1" page="1" pageScale="1" pageWidth="850" pageHeight="1100" math="0" shadow="0">
      <root>
        <mxCell id="0" />
        <mxCell id="1" parent="0" />
        <mxCell id="sdyww1sUWCjOCfEVa-Bf-1" value="START" style="ellipse;whiteSpace=wrap;html=1;" parent="1" vertex="1">
          <mxGeometry x="350" y="20" width="120" height="80" as="geometry" />
        </mxCell>
        <mxCell id="sdyww1sUWCjOCfEVa-Bf-2" value="" style="endArrow=classic;html=1;rounded=0;" parent="1" edge="1">
          <mxGeometry width="50" height="50" relative="1" as="geometry">
            <mxPoint x="409.5" y="100" as="sourcePoint" />
            <mxPoint x="410" y="130" as="targetPoint" />
            <Array as="points">
              <mxPoint x="409.5" y="120" />
            </Array>
          </mxGeometry>
        </mxCell>
        <mxCell id="sdyww1sUWCjOCfEVa-Bf-3" value="Someone comes to wake me up&lt;div&gt;(My Mom mainly)&lt;/div&gt;" style="shape=parallelogram;perimeter=parallelogramPerimeter;whiteSpace=wrap;html=1;fixedSize=1;" parent="1" vertex="1">
          <mxGeometry x="305" y="130" width="210" height="60" as="geometry" />
        </mxCell>
        <mxCell id="sdyww1sUWCjOCfEVa-Bf-4" value="I go to the bathroom and freshen up then I pray" style="rounded=0;whiteSpace=wrap;html=1;" parent="1" vertex="1">
          <mxGeometry x="350" y="220" width="120" height="60" as="geometry" />
        </mxCell>
        <mxCell id="sdyww1sUWCjOCfEVa-Bf-5" value="" style="endArrow=classic;html=1;rounded=0;entryX=0.5;entryY=0;entryDx=0;entryDy=0;" parent="1" target="sdyww1sUWCjOCfEVa-Bf-4" edge="1">
          <mxGeometry width="50" height="50" relative="1" as="geometry">
            <mxPoint x="409.5" y="190" as="sourcePoint" />
            <mxPoint x="409.5" y="240" as="targetPoint" />
            <Array as="points" />
          </mxGeometry>
        </mxCell>
        <mxCell id="8sQEkD-YfzuTzkq_Z3vM-1" value="" style="endArrow=classic;html=1;rounded=0;" edge="1" parent="1">
          <mxGeometry width="50" height="50" relative="1" as="geometry">
            <mxPoint x="409.5" y="280" as="sourcePoint" />
            <mxPoint x="410" y="320" as="targetPoint" />
            <Array as="points">
              <mxPoint x="409.5" y="290" />
            </Array>
          </mxGeometry>
        </mxCell>
        <mxCell id="8sQEkD-YfzuTzkq_Z3vM-2" value="I have breakfast and&lt;div&gt;get ready for college&lt;/div&gt;" style="rounded=0;whiteSpace=wrap;html=1;" vertex="1" parent="1">
          <mxGeometry x="350" y="320" width="120" height="60" as="geometry" />
        </mxCell>
        <mxCell id="8sQEkD-YfzuTzkq_Z3vM-6" value="" style="endArrow=classic;html=1;rounded=0;" edge="1" parent="1">
          <mxGeometry width="50" height="50" relative="1" as="geometry">
            <mxPoint x="409.5" y="380" as="sourcePoint" />
            <mxPoint x="409.5" y="410" as="targetPoint" />
          </mxGeometry>
        </mxCell>
        <mxCell id="8sQEkD-YfzuTzkq_Z3vM-7" value="END" style="ellipse;whiteSpace=wrap;html=1;" vertex="1" parent="1">
          <mxGeometry x="350" y="760" width="120" height="80" as="geometry" />
        </mxCell>
        <mxCell id="8sQEkD-YfzuTzkq_Z3vM-8" value="" style="endArrow=classic;html=1;rounded=0;" edge="1" parent="1">
          <mxGeometry width="50" height="50" relative="1" as="geometry">
            <mxPoint x="409.5" y="730" as="sourcePoint" />
            <mxPoint x="409.5" y="760" as="targetPoint" />
            <Array as="points" />
          </mxGeometry>
        </mxCell>
        <mxCell id="8sQEkD-YfzuTzkq_Z3vM-10" value="Then I drive to college, study and drive back home" style="rounded=0;whiteSpace=wrap;html=1;" vertex="1" parent="1">
          <mxGeometry x="350" y="410" width="120" height="60" as="geometry" />
        </mxCell>
        <mxCell id="8sQEkD-YfzuTzkq_Z3vM-11" value="" style="endArrow=classic;html=1;rounded=0;" edge="1" parent="1">
          <mxGeometry width="50" height="50" relative="1" as="geometry">
            <mxPoint x="409.5" y="470" as="sourcePoint" />
            <mxPoint x="409.5" y="500" as="targetPoint" />
          </mxGeometry>
        </mxCell>
        <mxCell id="8sQEkD-YfzuTzkq_Z3vM-12" value="I have lunch then I pray and then I study" style="rounded=0;whiteSpace=wrap;html=1;" vertex="1" parent="1">
          <mxGeometry x="350" y="490" width="120" height="60" as="geometry" />
        </mxCell>
        <mxCell id="8sQEkD-YfzuTzkq_Z3vM-13" value="" style="endArrow=classic;html=1;rounded=0;" edge="1" parent="1">
          <mxGeometry width="50" height="50" relative="1" as="geometry">
            <mxPoint x="409.5" y="550" as="sourcePoint" />
            <mxPoint x="409.5" y="580" as="targetPoint" />
          </mxGeometry>
        </mxCell>
        <mxCell id="8sQEkD-YfzuTzkq_Z3vM-14" value="Pray again and then have dinner and use my phone" style="rounded=0;whiteSpace=wrap;html=1;" vertex="1" parent="1">
          <mxGeometry x="350" y="580" width="120" height="60" as="geometry" />
        </mxCell>
        <mxCell id="8sQEkD-YfzuTzkq_Z3vM-15" value="" style="endArrow=classic;html=1;rounded=0;" edge="1" parent="1">
          <mxGeometry width="50" height="50" relative="1" as="geometry">
            <mxPoint x="409.5" y="640" as="sourcePoint" />
            <mxPoint x="409.5" y="670" as="targetPoint" />
          </mxGeometry>
        </mxCell>
        <mxCell id="8sQEkD-YfzuTzkq_Z3vM-16" value="Pray again and again before sleep" style="rounded=0;whiteSpace=wrap;html=1;" vertex="1" parent="1">
          <mxGeometry x="350" y="670" width="120" height="60" as="geometry" />
        </mxCell>
      </root>
    </mxGraphModel>
  </diagram>
</mxfile>
